<?xml version="1.0" standalone="no"?><!DOCTYPE svg PUBLIC "-//W3C//DTD SVG 1.1//EN" "http://www.w3.org/Graphics/SVG/1.1/DTD/svg11.dtd"><svg class="icon" width="64px" height="64.00px" viewBox="0 0 1024 1024" version="1.1" xmlns="http://www.w3.org/2000/svg"><path d="M594.459152 496.055596c25.806869-30.642424 33.869576-66.126869 21.775515-104.833293-14.515717-45.967515-58.061576-76.608646-106.448162-76.608646-24.997495 0.805495-47.577212 7.254626-67.737859 23.385212-34.675071 27.416566-49.190788 64.512-41.124202 108.055273 11.288566 58.064162 66.12299 95.159596 124.185859 87.897212C553.332364 530.729374 576.720162 518.63402 594.459152 496.055596z" fill="#FFBE00" /><path d="M511.998707 48.614141c-258.170828 0-463.383273 205.212444-463.383273 463.38198 0 258.174707 205.212444 463.388444 463.383273 463.388444 258.169535 0 463.387152-205.217616 463.387152-463.388444C975.387152 253.826586 770.170828 48.614141 511.998707 48.614141zM895.248808 526.696727c0 11.291152-0.806788 21.775515-1.61099 32.258586-3.224566 30.641131-10.484364 61.284848-20.964848 90.317576-22.583596 61.282263-58.064162 113.702788-107.253657 157.246061-37.095434 33.062788-78.226101 57.254788-124.995232 74.188283-39.514505 14.514424-80.64 21.774222-122.573576 22.578424-1.612283 0-3.229737 0.809374-4.836848 0.809374l-5.647515 0c-1.609697 0-4.030061-0.809374-5.642343-0.809374-10.481778 0-20.967434-0.804202-31.450505-1.609697-30.642424-3.223273-61.284848-10.485657-90.316283-20.968727-63.703919-22.578424-117.734141-60.479354-162.089374-112.087919-30.642424-35.484444-53.220848-74.996364-69.348848-119.346424-14.514424-39.515798-21.774222-80.646465-22.579717-122.577455 0-1.609697-0.806788-3.227152-0.806788-4.835556l0-5.646222c0.806788-1.614869 0.806788-4.032646 0.806788-5.643636 0-11.289859 0.805495-21.778101 1.61099-32.258586 3.225859-30.641131 9.678869-61.284848 20.161939-90.31499 22.578424-61.286141 58.865778-114.512162 108.057859-157.248646 37.095434-33.065374 78.220929-57.254788 124.995232-74.189576 39.513212-14.514424 80.637414-21.774222 122.57099-22.579717 1.614869 0 3.224566-0.806788 4.840727-0.806788l5.643636 0c1.613576 0 4.030061 0.806788 5.644929 0.806788 10.481778 0 20.966141 0.806788 31.450505 1.612283 31.451798 3.225859 61.283556 9.678869 90.316283 20.159354 61.286141 22.579717 114.508283 58.868364 158.052848 107.251071 33.064081 37.094141 57.257374 78.223515 74.190869 124.995232 13.710222 39.513212 21.772929 80.642586 21.772929 122.573576 0 1.61099 0.809374 3.228444 0.809374 4.838141l0 5.643636C895.248808 522.664081 895.248808 525.08703 895.248808 526.696727z" fill="#FFBE00" /><path d="M515.43402 165.430303C319.476364 163.007354 159.809939 319.450505 157.392162 514.600081c-2.424242 195.150869 154.020202 354.821172 349.168485 357.240242 195.152162 2.417778 354.821172-154.022788 358.048323-349.174949C867.025455 328.322586 710.582303 167.848081 515.43402 165.430303zM700.904727 743.619232c-6.447838 0-11.288566-4.031354-11.288566-11.28598-0.804202-34.673778-9.676283-66.934949-29.027556-95.158303-28.225939-41.93099-66.933657-67.741737-116.929939-76.606061-62.90101-10.483071-117.735434 7.25204-162.892283 53.219556-26.614949 27.420444-41.933576 60.481939-46.774303 98.384162-0.805495 7.254626-1.612283 13.711515-1.612283 20.963556 0 6.451717-4.838141 11.288566-11.289859 11.288566-6.451717 0-10.485657-4.836848-10.485657-12.092768 0.808081-49.189495 16.938667-91.931152 50.000162-129.025293 23.385212-26.616242 52.415354-45.160727 85.479434-56.448 1.61099-0.806788 3.224566-0.806788 4.838141-1.617455l0.806788-0.802909c-3.227152-2.415192-7.259798-4.032646-10.486949-6.449131-31.450505-19.355152-52.412768-46.771717-60.475475-83.062949-8.872081-38.706424-1.614869-74.184404 21.771636-105.634909 20.158061-27.421737 46.771717-45.160727 80.642586-51.612444 54.023758-9.677576 99.189657 6.45301 133.860848 49.192081 22.577131 28.224646 31.445333 61.284848 25.804283 97.573495-6.450424 42.739071-29.835636 74.188283-66.931071 95.959919-1.614869 0.809374-4.035232 1.617455-6.451717 3.223273 1.614869 0.809374 3.227152 1.612283 4.036525 1.612283 33.060202 11.289859 62.090343 29.843394 86.281051 55.647677 20.966141 22.577131 36.286061 49.186909 44.352646 79.831919 4.838141 16.937374 7.255919 33.869576 7.255919 51.611152C711.389091 738.781091 707.356444 743.619232 700.904727 743.619232z" fill="#FFBE00" /></svg>