<?xml version="1.0" standalone="no"?><!DOCTYPE svg PUBLIC "-//W3C//DTD SVG 1.1//EN" "http://www.w3.org/Graphics/SVG/1.1/DTD/svg11.dtd"><svg class="icon" width="64px" height="64.00px" viewBox="0 0 1024 1024" version="1.1" xmlns="http://www.w3.org/2000/svg"><path d="M512 512m-486.336 0a486.336 486.336 0 1 0 972.672 0 486.336 486.336 0 1 0-972.672 0Z" fill="#9DE8F7" /><path d="M512 1014.08C235.136 1014.08 9.92 788.8 9.92 512 9.92 235.136 235.136 9.92 512 9.92c276.8 0 502.08 225.216 502.08 502.08 0 276.8-225.28 502.08-502.08 502.08zM512 41.344C252.48 41.344 41.344 252.48 41.344 512c0 259.584 211.136 470.656 470.656 470.656 259.584 0 470.656-211.136 470.656-470.656S771.584 41.344 512 41.344z"  /><path d="M847.808 671.04a23.68 23.68 0 0 1-31.616 11.328L506.368 536.064a23.808 23.808 0 0 1 20.288-43.008l309.824 146.368a23.68 23.68 0 0 1 11.328 31.616z" fill="#F2385A" /><path d="M826.304 700.48a39.616 39.616 0 0 1-16.96-3.84L499.584 550.4a39.68 39.68 0 0 1-18.88-52.672 40.576 40.576 0 0 1 52.736-19.008l309.824 146.368a39.616 39.616 0 0 1-16.96 75.392zM517.12 507.264c-4.48 0-6.656 1.6-7.744 3.968a7.872 7.872 0 0 0 3.776 10.496l313.152 147.072a7.872 7.872 0 0 0 7.488-10.496 7.68 7.68 0 0 0-4.096-4.544l-309.76-146.368c-1.024-0.128-1.984-0.128-2.816-0.128z"  /><path d="M512 535.744A23.68 23.68 0 0 1 488.256 512V169.344a23.68 23.68 0 1 1 47.488 0V512A23.68 23.68 0 0 1 512 535.744z" fill="#F2385A" /><path d="M512 551.616A39.68 39.68 0 0 1 472.384 512V169.344a39.68 39.68 0 0 1 79.232 0V512A39.68 39.68 0 0 1 512 551.616z m0-390.144a8 8 0 0 0-7.936 7.936V512c0 8.704 15.872 8.704 15.872 0V169.344A7.936 7.936 0 0 0 512 161.472z"  /><path d="M512 512m-60.096 0a60.096 60.096 0 1 0 120.192 0 60.096 60.096 0 1 0-120.192 0Z" fill="#FAD97F" /><path d="M512 587.776a75.84 75.84 0 0 1 0-151.552 75.84 75.84 0 0 1 0 151.552z m0-120.064c-24.384 0-44.288 19.904-44.288 44.288s19.904 44.288 44.288 44.288 44.288-19.904 44.288-44.288-19.904-44.288-44.288-44.288z"  /></svg>